<svg width="96" height="96" viewBox="0 0 96 96" fill="none" xmlns="http://www.w3.org/2000/svg">
<g clip-path="url(#clip0_1003_1356)">
<path d="M59.7239 78.6904C47.5148 96.6588 40.3943 96.2585 30.8509 78.853C23.3271 65.1478 14.3036 52.3565 8.28521 37.742C2.99377 24.9002 2.7046 14.4753 9.47033 9.97877C17.6568 4.54086 28.7621 8.10413 37.94 19.0739C39.7127 21.203 42.2747 22.8762 43.4576 25.283C46.4681 31.4419 48.0375 27.5119 49.4695 24.5697C53.464 16.2737 59.4332 10.2203 67.5323 5.67252C73.0502 2.55561 77.4795 3.51766 82.2184 6.35899C87.4423 9.48433 88.4331 14.2938 87.3769 19.8482C84.6608 34.1837 77.1306 46.5505 70.3965 59.1003C66.5539 66.2335 61.6493 72.8411 59.7419 78.7029L59.7239 78.6904Z" fill="#ECB039"/>
</g>
<defs>
<clipPath id="clip0_1003_1356">
<rect width="96" height="96" fill="white"/>
</clipPath>
</defs>
</svg>
